<svg width="47" height="75" viewBox="0 0 47 75" fill="none" xmlns="http://www.w3.org/2000/svg">
<path d="M16.9224 74.4669H7.82401C2.69813 74.4669 1.11765 69.5879 0.989502 67.0201C0.989502 66.9773 0.989502 66.9773 0.989502 66.9345V10.4414C0.989502 7.4028 1.88654 5.00612 3.63788 3.29421C6.20082 0.811943 9.66078 0.726347 10.0879 0.726347C10.8141 0.726347 29.31 0.426758 34.2223 0.426758C41.2277 0.426758 45.9264 3.72218 45.9264 8.68672C45.9264 13.3945 42.1674 15.5772 40.1598 16.0907C40.0744 16.0907 39.9889 16.1335 39.9035 16.1335L36.1018 16.4759C35.2048 16.5615 34.4359 15.8767 34.3505 15.0208C34.265 14.1648 34.9485 13.3517 35.8028 13.2661L39.4764 12.9665C40.1171 12.7525 42.7227 11.7682 42.7227 8.72953C42.7227 5.00613 38.1521 3.67938 34.2223 3.67938C29.2673 3.67938 10.3442 3.97897 10.1307 3.97897H10.0879C10.0879 3.97897 7.56772 3.97898 5.90181 5.64809C4.7912 6.71803 4.23591 8.34434 4.23591 10.4842V66.9773C4.27863 67.5336 4.66307 71.3426 7.86674 71.3426H16.9652C17.8622 71.3426 18.5884 72.0702 18.5884 72.9689C18.5884 73.8677 17.8195 74.4669 16.9224 74.4669Z" fill="#FF4FB9"/>
<path d="M28.6693 74.4664C27.815 74.4664 27.1315 73.8244 27.0888 72.9685C27.0461 72.0697 27.6868 71.2994 28.5839 71.2566L41.5694 70.4006H41.6121C41.6121 70.4006 42.3383 70.3578 42.8082 69.7158C43.3635 68.9883 43.4916 67.7471 43.1926 66.0352C42.3383 61.3275 34.7776 61.2847 34.5641 61.2847L19.9553 61.6271C19.8699 61.6271 19.7844 61.6271 19.7417 61.6271C17.4778 61.3275 13.1635 59.1876 13.1635 52.9391C13.1635 44.722 16.1109 42.0257 18.5884 41.1697C20.297 40.5706 23.458 40.7418 28.114 41.0841C30.0789 41.2125 31.9584 41.3409 33.2826 41.3409C33.7097 41.3409 34.1369 41.3409 34.6068 41.3409C38.323 41.3837 40.1171 41.2125 40.5015 37.0611C40.587 36.0768 40.3734 35.3493 39.7753 34.7501C38.024 32.9526 33.5389 32.8242 31.1468 33.0382C31.0614 33.0382 30.6769 33.1238 30.3779 33.1666C27.1315 33.7657 18.5884 35.3065 15.0003 29.4004C12.5655 25.3346 11.9675 21.3972 13.3344 18.2729C14.7013 15.1915 17.8195 13.1372 22.6037 12.1957C23.458 12.0245 24.3123 12.5808 24.4832 13.4796C24.654 14.3356 24.0987 15.1915 23.2017 15.3627C19.5281 16.0903 17.1788 17.5026 16.239 19.5997C15.2993 21.6968 15.8546 24.6926 17.7341 27.7741C20.1689 31.797 27.1742 30.5559 29.8226 30.0851C30.2925 29.9995 30.6342 29.9567 30.8905 29.9139C32.7273 29.7428 38.9638 29.4859 42.0393 32.5674C43.2781 33.8085 43.8761 35.5204 43.7052 37.4035C43.0645 44.6792 37.9813 44.6364 34.6068 44.5936C34.1796 44.5936 33.7952 44.5936 33.368 44.5936C31.9584 44.6364 29.9935 44.4652 27.9431 44.3368C24.953 44.1228 20.895 43.866 19.6563 44.294C17.5632 44.9787 16.4099 48.103 16.4099 53.0247C16.4099 57.5613 19.4427 58.3744 20.1262 58.5456L34.6495 58.2032C35.0766 58.2032 45.1575 58.246 46.4817 65.6072C46.9516 68.3035 46.6099 70.4434 45.4138 71.8985C44.0896 73.5248 42.2529 73.696 41.8684 73.7388L28.9256 74.5948C28.712 74.4664 28.6693 74.4664 28.6693 74.4664Z" fill="#FF4FB9"/>
</svg>
