<svg width="97" height="125" viewBox="0 0 97 125" fill="none" xmlns="http://www.w3.org/2000/svg">
<g filter="url(#e_layer)">
<path d="M34.7489 92.4669H25.6504C20.5245 92.4669 18.9441 87.5879 18.8159 85.0201C18.8159 84.9773 18.8159 84.9773 18.8159 84.9345V28.4414C18.8159 25.4028 19.7129 23.0061 21.4643 21.2942C24.0272 18.8119 27.4872 18.7691 27.9143 18.7263C28.6405 18.7263 47.1365 18.4268 52.0488 18.4268C59.0542 18.4268 63.7529 21.7222 63.7529 26.6867C63.7529 31.3945 59.9939 33.5772 57.9863 34.0907C57.9008 34.0907 57.8154 34.1335 57.73 34.1335L53.9283 34.4759C53.0312 34.5615 52.2624 33.8767 52.1769 33.0208C52.0915 32.122 52.775 31.3517 53.6293 31.2661L57.2601 30.9665C57.9009 30.7525 60.5065 29.7682 60.5065 26.7295C60.5065 23.0061 55.9359 21.6794 52.0061 21.6794C47.051 21.6794 28.0852 21.979 27.9143 21.979H27.8716C27.8716 21.979 25.3514 21.979 23.6855 23.6481C22.5749 24.718 22.0196 26.3443 22.0196 28.4842V84.9773C22.0623 85.5336 22.4468 89.3426 25.6504 89.3426H34.7489C35.6459 89.3426 36.3721 90.0702 36.3721 90.9689C36.3721 91.8677 35.6459 92.4669 34.7489 92.4669Z" fill="#FF4FB9"/>
</g>
<g filter="url(#e_layer2)">
<path d="M46.4516 92.4664C45.5972 92.4664 44.9138 91.8244 44.8711 90.9685C44.8284 90.0697 45.4691 89.2994 46.3661 89.2566L59.3517 88.4006H59.3944C59.3944 88.4006 60.1206 88.3578 60.5905 87.7158C61.1458 86.9883 61.2739 85.7471 60.9749 84.0352C60.1206 79.2847 52.4318 79.2847 52.3463 79.2847L37.7375 79.6271C37.6521 79.6271 37.5667 79.6271 37.524 79.6271C35.26 79.3275 30.9457 77.1876 30.9457 70.9391C30.9457 62.722 33.8931 60.0257 36.3707 59.1697C38.0793 58.5706 41.2402 58.7418 45.8962 59.0841C47.8612 59.2125 49.7407 59.3409 51.0649 59.3409C51.492 59.3409 51.9192 59.3409 52.3891 59.3409C56.1053 59.3837 57.8994 59.2125 58.2838 55.0611C58.3692 54.0768 58.1557 53.3493 57.5576 52.7501C55.7636 50.9526 51.3212 50.8242 48.9291 51.0382C48.8437 51.0382 48.4592 51.1238 48.1602 51.1666C44.9138 51.7657 36.3706 53.3065 32.7825 47.4004C30.3477 43.3346 29.7497 39.3972 31.1166 36.2729C32.4835 33.1915 35.6018 31.1372 40.3859 30.1957C41.2403 30.0245 42.0945 30.5808 42.2654 31.4796C42.4363 32.3356 41.881 33.1915 40.9839 33.3627C37.3104 34.0903 34.961 35.5026 34.0213 37.5997C33.0815 39.6968 33.6368 42.6926 35.5163 45.7741C37.9511 49.8398 44.9565 48.5559 47.6049 48.0851C48.0747 47.9995 48.4165 47.9567 48.6728 47.9139C50.5095 47.7428 56.7461 47.4859 59.8216 50.5674C61.0604 51.8085 61.6583 53.5204 61.4875 55.4035C60.8467 62.6792 55.7636 62.6364 52.3891 62.5936C51.9619 62.5936 51.5774 62.5936 51.1503 62.5936C49.7407 62.5936 47.7758 62.4652 45.7254 62.3368C42.7353 62.1228 38.6773 61.866 37.4385 62.294C35.3455 62.9787 34.1922 66.103 34.1922 71.0247C34.1922 75.5613 37.225 76.3744 37.9084 76.5456L52.4318 76.2032C52.4318 76.2032 52.4317 76.2032 52.4745 76.2032C53.2006 76.2032 62.9825 76.3316 64.264 83.6072C64.7339 86.3035 64.3921 88.4434 63.1961 89.8985C61.8719 91.5248 60.0352 91.696 59.6507 91.7388L46.6651 92.5948C46.537 92.4664 46.4943 92.4664 46.4516 92.4664Z" fill="#FF4FB9"/>
</g>
<defs>
<filter id="e_layer" x="0.815918" y="0.426758" width="94.937" height="124.04" filterUnits="userSpaceOnUse" color-interpolation-filters="sRGB">
<feFlood flood-opacity="0" result="BackgroundImageFix"/>
<feColorMatrix in="SourceAlpha" type="matrix" values="0 0 0 0 0 0 0 0 0 0 0 0 0 0 0 0 0 0 127 0" result="hardAlpha"/>
<feOffset dx="7" dy="7"/>
<feGaussianBlur stdDeviation="12.5"/>
<feComposite in2="hardAlpha" operator="out"/>
<feColorMatrix type="matrix" values="0 0 0 0 1 0 0 0 0 0.360784 0 0 0 0 0.745098 0 0 0 1 0"/>
<feBlend mode="normal" in2="BackgroundImageFix" result="effect1_dropShadow_852:773"/>
<feBlend mode="normal" in="SourceGraphic" in2="effect1_dropShadow_852:773" result="shape"/>
</filter>
<filter id="e_layer2" x="12.3979" y="12.1648" width="84.0691" height="112.43" filterUnits="userSpaceOnUse" color-interpolation-filters="sRGB">
<feFlood flood-opacity="0" result="BackgroundImageFix"/>
<feColorMatrix in="SourceAlpha" type="matrix" values="0 0 0 0 0 0 0 0 0 0 0 0 0 0 0 0 0 0 127 0" result="hardAlpha"/>
<feOffset dx="7" dy="7"/>
<feGaussianBlur stdDeviation="12.5"/>
<feComposite in2="hardAlpha" operator="out"/>
<feColorMatrix type="matrix" values="0 0 0 0 1 0 0 0 0 0.360784 0 0 0 0 0.745098 0 0 0 1 0"/>
<feBlend mode="normal" in2="BackgroundImageFix" result="effect1_dropShadow_852:773"/>
<feBlend mode="normal" in="SourceGraphic" in2="effect1_dropShadow_852:773" result="shape"/>
</filter>
</defs>
</svg>
