<svg width="56" height="91" viewBox="0 0 56 91" fill="none" xmlns="http://www.w3.org/2000/svg">
<path d="M11.0193 90.9526C3.62952 90.9526 1.02386 84.1477 0.724854 80.5527C0.724854 80.5099 0.724854 80.4671 0.724854 80.3815C0.724854 79.7395 1.06658 15.1577 1.06658 11.2631C1.10929 8.82362 1.96361 6.51254 3.45866 4.62944C4.95371 2.74634 7.00407 1.41961 9.31072 0.820438C13.5823 -0.249507 31.651 0.649244 33.7014 0.777637C34.5984 0.820435 35.2819 1.59079 35.1965 2.44675C35.1537 3.3455 34.3849 3.98747 33.5305 3.94467C28.1056 3.64509 13.326 3.08871 10.1223 3.90187C8.49912 4.32985 7.04678 5.27141 5.97889 6.59814C4.91099 7.92487 4.31297 9.59398 4.27026 11.2631C4.27026 15.0293 3.92853 77.514 3.92853 80.2531C4.01397 81.0235 4.95371 87.6999 11.0193 87.6999C16.9568 87.6999 17.7257 83.8481 17.8539 83.2062C17.6403 79.2688 16.7005 61.3365 16.8714 59.6674C17.384 54.5744 21.1857 51.707 26.9523 52.0066C33.7014 52.3062 42.1164 52.3062 43.227 52.3062C43.9532 52.1778 48.3529 51.1934 48.3529 47.2988C48.3529 42.805 43.7823 40.3228 41.3902 40.3228C38.4429 40.3228 22.2536 40.6224 22.0827 40.6224C21.9546 40.6224 21.7837 40.6224 21.6556 40.5796C19.5198 40.0232 15.5045 37.4125 15.5045 31.4636C15.5045 25.258 15.4618 21.6201 15.4618 21.6201C15.4618 21.449 15.4191 19.4803 17.1277 17.7256C18.7936 16.0136 21.4847 15.1149 25.0728 15.1149C30.5832 15.1577 36.0935 15.6713 41.5184 16.6556C41.6038 16.6556 41.6465 16.6984 41.732 16.6984C41.9028 16.7412 46.1744 18.0251 49.3354 13.5742C51.343 10.7495 52.1973 8.26725 51.5993 6.94051C51.0867 5.82777 49.3354 5.3998 48.0112 5.2714C47.1141 5.18581 46.4734 4.41545 46.5588 3.51669C46.6443 2.61794 47.4132 1.97597 48.3102 2.06157C51.5139 2.36115 53.6069 3.55949 54.5467 5.57098C55.6573 8.05325 54.7603 11.4343 51.941 15.3717C48.3529 20.379 43.1843 20.4218 40.8776 19.6942C35.6663 18.7955 30.3696 18.2819 25.0728 18.2391C22.4244 18.2391 20.4595 18.7955 19.4343 19.8654C18.7082 20.6358 18.6655 21.4062 18.6655 21.4062C18.6655 21.4918 18.7082 25.1296 18.7082 31.3352C18.7082 35.7006 21.5701 37.0274 22.2963 37.2842C24.4748 37.2414 38.571 36.9846 41.3902 36.9846C45.0211 36.9846 51.5566 40.3656 51.5566 47.1704C51.5566 52.6913 46.3453 54.9168 43.6115 55.3448C43.526 55.3448 43.4406 55.3448 43.3979 55.3448C43.3124 55.3448 34.0858 55.3876 26.8242 55.0452C22.6807 54.8312 20.4168 56.4575 20.0751 59.8386C19.9469 61.0797 20.6304 74.6894 21.0575 82.9922C21.0575 83.0778 21.0575 83.1206 21.0575 83.2062C20.844 86.0308 18.4519 90.9526 11.0193 90.9526Z" fill="#FF4FB9"/>
</svg>
