<svg width="106" height="141" viewBox="0 0 106 141" fill="none" xmlns="http://www.w3.org/2000/svg">
<g filter="url(#f_layer)">
<path d="M29.0196 108.953C21.6298 108.953 19.0241 102.148 18.7251 98.5527C18.7251 98.5099 18.7251 98.4671 18.7251 98.3815C18.7251 97.7395 19.0668 33.1577 19.0668 29.2631C19.1095 26.8236 19.9639 24.5125 21.4589 22.6294C22.954 20.7463 25.0043 19.4196 27.311 18.8204C31.5825 17.7505 49.6513 18.6492 51.7016 18.7776C52.5987 18.8204 53.2821 19.5908 53.1967 20.4467C53.154 21.3455 52.3851 21.9875 51.5308 21.9447C46.1059 21.6451 31.3262 21.0887 28.1226 21.9019C26.4994 22.3298 25.047 23.2714 23.9791 24.5981C22.9112 25.9249 22.3132 27.594 22.2705 29.2631C22.2705 33.0293 21.9288 95.514 21.9288 98.2531C22.0142 99.0235 22.954 105.7 29.0196 105.7C34.9571 105.7 35.726 101.848 35.8541 101.206C35.6405 97.2688 34.7008 79.3365 34.8716 77.6674C35.3842 72.5745 39.1859 69.707 44.9526 70.0066C51.7016 70.3062 60.1166 70.3062 61.2273 70.3062C61.9534 70.1778 66.3531 69.1934 66.3531 65.2988C66.3531 60.805 61.7826 58.3228 59.3905 58.3228C56.4431 58.3228 40.2538 58.6224 40.083 58.6224C39.9548 58.6224 39.784 58.6224 39.6558 58.5796C37.52 58.0232 33.5047 55.4125 33.5047 49.4636C33.5047 43.258 33.462 39.6201 33.462 39.6201C33.462 39.449 33.4193 37.4803 35.1279 35.7256C36.7939 34.0136 39.4849 33.1149 43.0731 33.1149C48.5834 33.1577 54.0937 33.6713 59.5186 34.6556C59.6041 34.6556 59.6468 34.6984 59.7322 34.6984C59.9031 34.7412 64.1746 36.0251 67.3356 31.5742C69.3432 28.7495 70.1976 26.2672 69.5995 24.9405C69.087 23.8278 67.3356 23.3998 66.0114 23.2714C65.1144 23.1858 64.4737 22.4154 64.5591 21.5167C64.6445 20.6179 65.4134 19.976 66.3104 20.0616C69.5141 20.3612 71.6072 21.5595 72.5469 23.571C73.6575 26.0533 72.7605 29.4343 69.9413 33.3717C66.3531 38.379 61.1845 38.4218 58.8779 37.6942C53.6666 36.7955 48.3698 36.2819 43.0731 36.2391C40.4247 36.2391 38.4598 36.7955 37.4346 37.8654C36.7084 38.6358 36.6657 39.4062 36.6657 39.4062C36.6657 39.4918 36.7084 43.1296 36.7084 49.3352C36.7084 53.7006 39.5704 55.0274 40.2965 55.2842C42.475 55.2414 56.5712 54.9846 59.3905 54.9846C63.0213 54.9846 69.5568 58.3656 69.5568 65.1704C69.5568 70.6913 64.3455 72.9168 61.6117 73.3448C61.5263 73.3448 61.4408 73.3448 61.3981 73.3448C61.3127 73.3448 52.0861 73.3876 44.8244 73.0452C40.681 72.8312 38.4171 74.4575 38.0753 77.8386C37.9472 79.0797 38.6306 92.6894 39.0578 100.992C39.0578 101.078 39.0578 101.121 39.0578 101.206C38.8442 104.031 36.4521 108.953 29.0196 108.953Z" fill="#FF4FB9"/>
</g>
<defs>
<filter id="f_layer" x="0.725098" y="0.30249" width="104.284" height="140.65" filterUnits="userSpaceOnUse" color-interpolation-filters="sRGB">
<feFlood flood-opacity="0" result="BackgroundImageFix"/>
<feColorMatrix in="SourceAlpha" type="matrix" values="0 0 0 0 0 0 0 0 0 0 0 0 0 0 0 0 0 0 127 0" result="hardAlpha"/>
<feOffset dx="7" dy="7"/>
<feGaussianBlur stdDeviation="12.5"/>
<feComposite in2="hardAlpha" operator="out"/>
<feColorMatrix type="matrix" values="0 0 0 0 1 0 0 0 0 0.360784 0 0 0 0 0.745098 0 0 0 1 0"/>
<feBlend mode="normal" in2="BackgroundImageFix" result="effect1_dropShadow_495:1082"/>
<feBlend mode="normal" in="SourceGraphic" in2="effect1_dropShadow_495:1082" result="shape"/>
</filter>
</defs>
</svg>
