<svg width="66" height="74" viewBox="0 0 66 74" fill="none" xmlns="http://www.w3.org/2000/svg">
<path d="M31.7266 61.5667C31.0431 61.5667 30.6587 61.5239 30.6587 61.5239C29.7616 61.4383 29.1209 60.6679 29.2063 59.812C29.2918 58.9132 30.0607 58.2712 30.915 58.3568C31.6411 58.3996 48.2576 59.5124 49.9235 43.7628C51.0768 32.8065 49.3682 24.461 45.0539 19.6248C42.1919 16.415 38.0912 14.7887 32.9653 14.7887C18.6555 14.7887 14.8538 29.6823 14.8538 37.5571C14.8538 45.8171 21.3893 54.6334 21.4748 54.7618C21.9874 55.4894 21.8592 56.4737 21.133 56.9873C20.4069 57.5009 19.4244 57.3725 18.9118 56.6877C18.6128 56.3025 11.6501 46.887 11.6501 37.5571C11.6501 31.8222 13.2733 25.7021 16.0499 21.2084C19.8516 14.9171 25.7464 11.5789 32.9653 11.5789C39.0737 11.5789 43.9433 13.5476 47.446 17.4849C52.401 23.0059 54.3659 32.2074 53.1272 44.1052C51.3758 60.4111 35.9554 61.5667 31.7266 61.5667Z" fill="#FF4FB9"/>
<path d="M33.6057 73.5093C32.4096 73.5093 31.598 73.4238 31.3418 73.4238C25.5751 73.381 16.6475 70.0427 9.64217 62.6815C5.02888 57.8454 -0.310579 49.457 0.330156 37.1312C0.88546 26.175 4.60173 16.8023 11.0945 10.0403C16.9466 3.96299 24.55 0.539177 32.5378 0.325189C39.9703 0.153998 46.3777 2.29389 51.6744 6.65926C56.5867 10.7678 60.5166 16.8451 63.3358 24.7627C68.8461 40.1699 59.705 56.8182 59.3205 57.5458C58.8934 58.3161 57.9109 58.6157 57.142 58.1449C56.3731 57.717 56.0741 56.7326 56.544 55.9622C56.6722 55.7483 65.3434 39.8703 60.3457 25.8326C54.9635 10.725 45.6515 3.23542 32.6659 3.53501C19.0396 3.87739 4.68715 15.5612 3.57655 37.2597C3.02124 48.4299 7.84812 56.0479 12.0343 60.4132C18.3989 67.1325 26.6003 70.1711 31.5126 70.1711C31.5553 70.1711 31.6408 70.1711 31.6835 70.1711C31.8116 70.1711 42.7468 71.3266 50.3929 64.3934C51.0337 63.7942 52.0589 63.837 52.6569 64.5218C53.2549 65.1638 53.2122 66.1909 52.5287 66.7901C45.9078 72.6962 37.621 73.5093 33.6057 73.5093Z" fill="#FF4FB9"/>
</svg>
