<svg width="53" height="74" viewBox="0 0 53 74" fill="none" xmlns="http://www.w3.org/2000/svg">
<path d="M21.2558 35.3331C20.4869 35.3331 19.8034 34.7767 19.6753 34.0063C19.5044 33.1504 20.1024 32.2945 20.9568 32.1233C23.776 31.6097 34.3695 28.5283 34.3695 23.0502C34.3695 17.5293 28.4747 15.7317 28.0476 15.6034C19.2481 13.4207 17.2832 16.1597 16.9415 16.8017V28.1859C16.9415 29.0846 16.2153 29.8122 15.3183 29.8122C14.4212 29.8122 13.6951 29.0846 13.6951 28.1859V16.5021C13.6951 16.3737 13.6951 16.2453 13.7378 16.1169C13.7805 15.9457 14.2504 14.191 16.3434 12.9071C19.0773 11.238 23.3061 11.0668 28.8165 12.4363C31.8493 13.2923 37.5732 16.5449 37.5732 23.0073C37.5732 32.2088 21.7256 35.2047 21.5548 35.2475C21.4693 35.2903 21.3839 35.3331 21.2558 35.3331Z" fill="#FF4FB9"/>
<path d="M44.4912 73.4675C37.9985 73.4675 35.3501 69.5729 34.8375 67.3474C34.6666 66.4915 35.1792 65.6355 36.0335 65.4215C36.8878 65.2075 37.7422 65.7639 37.9557 66.6199C38.0412 67.005 39.1945 70.6856 45.6018 70.1721C47.225 70.0437 48.2502 69.5729 48.6347 68.8453C49.3181 67.4758 48.2929 64.9079 47.6522 63.8808C47.6522 63.838 47.6095 63.838 47.6095 63.7952C47.5668 63.7096 43.2525 55.6636 39.6644 49.0728C35.5637 41.5403 39.7498 36.4046 39.9207 36.1906C39.9634 36.1478 40.0488 36.0622 40.0915 36.0194C48.2929 28.8722 46.9688 21.2114 46.926 20.9118C44.3204 5.37619 30.4378 3.45029 29.199 3.2791H10.8312C6.47423 3.2791 4.03944 7.60168 3.48414 8.71442V64.3516C3.48414 64.3944 3.48414 64.4372 3.48414 64.4372C3.48414 64.48 3.35599 67.2618 4.89375 68.8881C5.66264 69.7441 6.77324 70.1293 8.26829 70.1293C13.1806 70.1293 13.6505 66.9622 13.6932 66.2775V48.9015C13.6932 45.6917 14.6757 43.5946 16.5979 42.5675C19.5025 41.0696 23.5178 42.9527 25.44 44.2794C28.003 46.1197 31.6338 54.4225 32.3173 56.0488C32.659 56.8619 32.2745 57.8035 31.4629 58.1459C30.6514 58.4883 29.7116 58.1031 29.3699 57.2899C27.5331 52.9674 24.7993 47.746 23.6032 46.8901C22.1509 45.8629 19.4171 44.7074 18.0929 45.3921C17.1105 45.9057 16.8969 47.5748 16.8969 48.8588V66.2775V66.3203C16.8114 68.7169 14.932 73.2963 8.26829 73.2963C5.87621 73.2963 3.95401 72.5259 2.54439 71.028C0.195023 68.5029 0.237744 64.7796 0.280459 64.2232V8.41483C0.280459 8.20084 0.32317 7.98684 0.408601 7.81565C0.536749 7.51607 3.69771 0.112061 10.8312 0.112061H29.2844C29.3272 0.112061 29.3699 0.112061 29.4553 0.112061C29.6262 0.112061 47.0115 2.03797 50.087 20.3554C50.2151 21.0402 51.7102 30.1561 42.3127 38.3733C41.8856 38.9297 39.6217 42.3963 42.4836 47.5748C45.9863 53.9517 50.1297 61.7409 50.4287 62.2973C50.8132 62.9392 53.1198 67.1334 51.4966 70.3433C50.5569 72.1408 48.6774 73.1679 45.9009 73.4247C45.3883 73.4675 44.9184 73.4675 44.4912 73.4675Z" fill="#FF4FB9"/>
</svg>
