<svg width="102" height="124" viewBox="0 0 102 124" fill="none" xmlns="http://www.w3.org/2000/svg">
<g filter="url(#r_layer)">
<path d="M38.9899 53.4198C38.221 53.4198 37.5375 52.8634 37.4094 52.093C37.2385 51.2371 37.8366 50.3811 38.6909 50.2099C41.5101 49.6964 52.1036 46.6149 52.1036 41.1368C52.1036 35.6159 46.2088 33.8184 45.7817 33.69C39.6733 32.1921 36.8968 33.0908 35.7862 33.7756C35.1027 34.2036 34.8037 34.6743 34.6756 34.8883V46.2726C34.6756 47.1713 33.9494 47.8989 33.0524 47.8989C32.1554 47.8989 31.4292 47.1713 31.4292 46.2726V34.5887C31.4292 34.4603 31.4292 34.332 31.4719 34.2036C31.5146 34.0324 31.9845 32.2776 34.0776 31.0365C36.8114 29.3674 41.0402 29.1962 46.5505 30.5657C49.5833 31.4217 55.3072 34.6743 55.3072 41.1368C55.3072 50.3383 39.4597 53.3342 39.2889 53.377C39.2034 53.4198 39.118 53.4198 38.9899 53.4198Z" fill="#FF4FB9"/>
</g>
<g filter="url(#r_layer2)">
<path d="M62.225 91.5962C55.7322 91.5962 53.0839 87.7016 52.5713 85.4761C52.3577 84.6201 52.913 83.7642 53.7673 83.5502C54.6216 83.3362 55.4759 83.8926 55.6895 84.7485C55.7749 85.1337 56.9282 88.8143 63.3356 88.3007C64.9588 88.1723 65.9839 87.7444 66.3684 86.974C67.0518 85.6045 66.0267 83.0366 65.386 82.0095C65.386 81.9667 65.3433 81.9667 65.3433 81.9239C65.3005 81.8383 60.9862 73.7923 57.3981 67.2014C53.2974 59.669 57.4836 54.5333 57.6544 54.3193C57.6971 54.2765 57.7826 54.1909 57.8253 54.1481C66.0267 47.0009 64.7025 39.3401 64.6598 38.9977C62.0541 23.5049 48.1716 21.5362 46.9328 21.365H28.5651C24.1227 21.365 21.7306 25.6876 21.1753 26.8004V82.4375C21.1753 82.4803 21.1753 82.523 21.1753 82.523C21.1753 82.523 21.0472 85.3477 22.5849 86.974C23.3538 87.83 24.5071 88.2151 26.0022 88.2151C30.9145 88.2151 31.3843 85.0481 31.4271 84.3634V67.073C31.4271 63.8632 32.4095 61.7661 34.3317 60.739C37.9198 58.8987 42.6185 62.0657 43.1738 62.4509C45.7368 64.2912 49.3676 72.594 50.051 74.2203C50.3928 75.0334 50.0083 75.975 49.1967 76.3174C48.3851 76.6597 47.4454 76.2746 47.1037 75.4614C45.2669 71.1388 42.5331 65.9175 41.3371 65.0615C39.8847 64.0344 37.1509 62.8789 35.8268 63.5636C34.8443 64.0772 34.6307 65.7463 34.6307 67.0303V84.4489V84.4917C34.5453 86.8884 32.6658 91.4678 26.0022 91.4678C23.6101 91.4678 21.6879 90.6974 20.2783 89.1995C17.9289 86.6744 17.9716 82.951 18.0143 82.3946V26.5008C18.0143 26.2868 18.0571 26.0728 18.1425 25.9016C18.2706 25.602 21.4316 18.198 28.6078 18.198H47.061C47.1037 18.198 47.1464 18.198 47.2318 18.198C47.4027 18.198 64.7879 20.1239 67.8634 38.4413C67.9489 38.7837 69.6148 48.0708 60.0892 56.4592C59.6621 57.0156 57.3981 60.4822 60.2601 65.6607C63.7628 72.0376 67.9062 79.8268 68.2052 80.3831C68.5896 81.0251 70.8963 85.2193 69.2731 88.4291C68.3333 90.2266 66.4538 91.2538 63.6773 91.5106C63.122 91.5534 62.6949 91.5962 62.225 91.5962Z" fill="#FF4FB9"/>
</g>
<defs>
<filter id="r_layer" x="13.4292" y="11.6489" width="73.8779" height="73.7708" filterUnits="userSpaceOnUse" color-interpolation-filters="sRGB">
<feFlood flood-opacity="0" result="BackgroundImageFix"/>
<feColorMatrix in="SourceAlpha" type="matrix" values="0 0 0 0 0 0 0 0 0 0 0 0 0 0 0 0 0 0 127 0" result="hardAlpha"/>
<feOffset dx="7" dy="7"/>
<feGaussianBlur stdDeviation="12.5"/>
<feComposite in2="hardAlpha" operator="out"/>
<feColorMatrix type="matrix" values="0 0 0 0 1 0 0 0 0 0.360784 0 0 0 0 0.745098 0 0 0 1 0"/>
<feBlend mode="normal" in2="BackgroundImageFix" result="effect1_dropShadow_852:774"/>
<feBlend mode="normal" in="SourceGraphic" in2="effect1_dropShadow_852:774" result="shape"/>
</filter>
<filter id="r_layer2" x="0.00292969" y="0.197998" width="101.842" height="123.398" filterUnits="userSpaceOnUse" color-interpolation-filters="sRGB">
<feFlood flood-opacity="0" result="BackgroundImageFix"/>
<feColorMatrix in="SourceAlpha" type="matrix" values="0 0 0 0 0 0 0 0 0 0 0 0 0 0 0 0 0 0 127 0" result="hardAlpha"/>
<feOffset dx="7" dy="7"/>
<feGaussianBlur stdDeviation="12.5"/>
<feComposite in2="hardAlpha" operator="out"/>
<feColorMatrix type="matrix" values="0 0 0 0 1 0 0 0 0 0.360784 0 0 0 0 0.745098 0 0 0 1 0"/>
<feBlend mode="normal" in2="BackgroundImageFix" result="effect1_dropShadow_852:774"/>
<feBlend mode="normal" in="SourceGraphic" in2="effect1_dropShadow_852:774" result="shape"/>
</filter>
</defs>
</svg>
