<svg width="39" height="74" viewBox="0 0 39 74" fill="none" xmlns="http://www.w3.org/2000/svg">
<path d="M18.6725 73.5947C18.4163 73.5947 18.2881 73.5947 18.16 73.5947H18.1173C16.9639 73.5947 7.05387 73.4663 2.56872 68.7158C0.945519 67.0039 0.176614 64.9068 0.304761 62.5101C0.51834 58.9151 1.62896 56.5184 3.67932 55.4057C6.66942 53.8221 10.1294 55.7908 10.5138 56.0048C10.5993 56.0476 10.642 56.0904 10.7274 56.1332C12.1798 57.3316 16.6649 60.2418 19.9113 59.4714C21.3636 59.1291 22.4743 58.1019 23.2859 56.2616C25.977 50.3555 23.414 48.3868 16.8785 44.1498C15.298 43.1227 13.4612 41.9672 11.6671 40.5976C7.56643 37.559 4.53361 33.4076 2.91041 28.6143C1.2445 23.7781 1.07365 18.6424 2.44055 13.7634C4.96078 4.5191 17.4765 -1.94336 27.6856 0.7529C32.3843 1.99404 35.4171 4.81869 36.0151 8.4993C36.5277 11.6235 35.1181 14.8334 32.5552 16.5025C28.4972 19.1132 24.8664 16.5025 23.4994 14.7478C22.9441 14.063 23.0723 13.0359 23.7984 12.4795C24.4819 11.9231 25.5071 12.0515 26.0624 12.7363C26.4468 13.207 28.369 15.3897 30.8465 13.7634C32.3416 12.8219 33.1532 10.8532 32.8542 8.97007C32.4698 6.57339 30.334 4.73309 26.874 3.83433C18.3736 1.60885 7.60918 7.04418 5.55882 14.5766C4.36278 18.8564 4.53365 23.3501 5.94327 27.5443C7.39561 31.7385 10.0439 35.3763 13.5894 37.987C15.298 39.2709 17.0066 40.3836 18.6298 41.4108C24.8236 45.391 30.1204 48.8576 26.1905 57.5455C24.9518 60.2846 23.0723 61.9965 20.5948 62.5529C15.4689 63.7512 9.65954 59.3431 8.76251 58.6583C8.07905 58.2731 6.3277 57.5883 5.17437 58.1875C3.93561 58.8295 3.59388 60.9694 3.50844 62.6385C3.42301 64.1364 3.89292 65.3775 4.87538 66.4475C7.9082 69.6573 15.2553 70.2993 18.0318 70.2993C18.0745 70.2993 18.1173 70.2993 18.2027 70.2993C18.2454 70.2993 18.2881 70.2993 18.2881 70.2993C18.7153 70.3421 28.4972 70.7701 33.025 61.2262C37.7238 51.2971 33.9221 44.2355 29.9068 40.0413C25.8488 35.8043 15.7252 28.0579 14.999 27.5015C12.5215 25.8324 8.93337 21.2958 12.6069 15.5181C13.0768 14.7906 14.0592 14.5338 14.8281 15.0474C15.5543 15.5181 15.8106 16.5025 15.298 17.2728C12.436 21.7238 16.3659 24.5485 16.8358 24.8481C16.8785 24.8481 16.8785 24.8908 16.9212 24.8908C17.3484 25.2332 27.8565 33.2364 32.2562 37.773C36.1433 41.796 41.7391 50.3555 35.9724 62.5529C31.1028 72.91 21.1501 73.5947 18.6725 73.5947Z" fill="#FF4FB9"/>
</svg>
