<svg width="89" height="124" viewBox="0 0 89 124" fill="none" xmlns="http://www.w3.org/2000/svg">
<g filter="url(#s_layer)">
<path d="M36.6725 91.5947C36.4163 91.5947 36.2881 91.5947 36.16 91.5947H36.1173C34.9639 91.5947 25.0539 91.4663 20.5687 86.7158C18.9455 85.0039 18.1766 82.9068 18.3048 80.5101C18.5183 76.9151 19.629 74.5184 21.6793 73.4057C24.6694 71.8221 28.1294 73.7908 28.5138 74.0048C28.5993 74.0476 28.642 74.0904 28.7274 74.1332C30.1798 75.3316 34.6649 78.2418 37.9113 77.4714C39.3636 77.1291 40.4743 76.1019 41.2859 74.2616C43.977 68.3555 41.414 66.3868 34.8785 62.1498C33.298 61.1227 31.4612 59.9672 29.6671 58.5976C25.5664 55.559 22.5336 51.4076 20.9104 46.6143C19.2445 41.7781 19.0736 36.6424 20.4406 31.7634C22.9608 22.5191 35.4765 16.0566 45.6856 18.7529C50.3843 19.994 53.4171 22.8187 54.0151 26.4993C54.5277 29.6235 53.1181 32.8334 50.5552 34.5025C46.4972 37.1132 42.8664 34.5025 41.4994 32.7478C40.9441 32.063 41.0723 31.0359 41.7984 30.4795C42.4819 29.9231 43.5071 30.0515 44.0624 30.7363C44.4468 31.207 46.369 33.3897 48.8465 31.7634C50.3416 30.8219 51.1532 28.8532 50.8542 26.9701C50.4698 24.5734 48.334 22.7331 44.874 21.8343C36.3736 19.6088 25.6092 25.0442 23.5588 32.5766C22.3628 36.8564 22.5337 41.3501 23.9433 45.5443C25.3956 49.7385 28.0439 53.3763 31.5894 55.987C33.298 57.2709 35.0066 58.3836 36.6298 59.4108C42.8236 63.391 48.1204 66.8576 44.1905 75.5455C42.9518 78.2846 41.0723 79.9965 38.5948 80.5529C33.4689 81.7512 27.6595 77.3431 26.7625 76.6583C26.0791 76.2731 24.3277 75.5883 23.1744 76.1875C21.9356 76.8295 21.5939 78.9694 21.5084 80.6385C21.423 82.1364 21.8929 83.3775 22.8754 84.4475C25.9082 87.6573 33.2553 88.2993 36.0318 88.2993C36.0745 88.2993 36.1173 88.2993 36.2027 88.2993C36.2454 88.2993 36.2881 88.2993 36.2881 88.2993C36.7153 88.3421 46.4972 88.7701 51.025 79.2262C55.7238 69.2971 51.9221 62.2355 47.9068 58.0413C43.8488 53.8043 33.7252 46.0579 32.999 45.5015C30.5215 43.8324 26.9334 39.2958 30.6069 33.5181C31.0768 32.7906 32.0592 32.5338 32.8281 33.0474C33.5543 33.5181 33.8106 34.5025 33.298 35.2728C30.436 39.7238 34.3659 42.5485 34.8358 42.8481C34.8785 42.8481 34.8785 42.8908 34.9212 42.8908C35.3484 43.2332 45.8565 51.2364 50.2562 55.773C54.1433 59.796 59.7391 68.3555 53.9724 80.5529C49.1028 90.91 39.1501 91.5947 36.6725 91.5947Z" fill="#FF4FB9"/>
</g>
<defs>
<filter id="s_layer" x="0.291016" y="0.135498" width="88.158" height="123.459" filterUnits="userSpaceOnUse" color-interpolation-filters="sRGB">
<feFlood flood-opacity="0" result="BackgroundImageFix"/>
<feColorMatrix in="SourceAlpha" type="matrix" values="0 0 0 0 0 0 0 0 0 0 0 0 0 0 0 0 0 0 127 0" result="hardAlpha"/>
<feOffset dx="7" dy="7"/>
<feGaussianBlur stdDeviation="12.5"/>
<feComposite in2="hardAlpha" operator="out"/>
<feColorMatrix type="matrix" values="0 0 0 0 1 0 0 0 0 0.360784 0 0 0 0 0.745098 0 0 0 1 0"/>
<feBlend mode="normal" in2="BackgroundImageFix" result="effect1_dropShadow_561:9095"/>
<feBlend mode="normal" in="SourceGraphic" in2="effect1_dropShadow_561:9095" result="shape"/>
</filter>
</defs>
</svg>
