<svg width="60" height="74" viewBox="0 0 60 74" fill="none" xmlns="http://www.w3.org/2000/svg">
<path d="M29.227 73.4662C24.4428 73.4662 21.7945 67.6458 21.709 67.4318C21.709 67.389 21.6663 67.389 21.6663 67.3462L7.35655 28.6142C7.05754 27.801 7.4847 26.8595 8.2963 26.5599C9.1079 26.2603 10.0476 26.6882 10.3466 27.5014L24.6137 66.1906C25.169 67.389 26.963 70.2992 29.1843 70.2992C31.7472 70.2992 33.584 67.0894 33.883 66.6186L55.4117 10.1683C55.4117 10.1255 55.4544 10.0827 55.4544 10.0399C55.7534 9.39794 56.4368 7.34365 55.7961 5.84573C55.3689 4.90417 54.3865 4.21941 52.9342 3.79144C51.3964 3.36346 50.1576 3.44906 49.1325 4.09103C47.1676 5.28936 46.5268 8.02842 46.5268 8.07122C46.5268 8.15681 46.4841 8.19961 46.4841 8.2852L33.4985 44.1925C31.7472 48.7719 30.8929 49.1571 29.9104 49.1571C28.9707 49.1571 28.0737 48.7719 26.1942 44.1925C26.1942 44.1925 26.1941 44.1497 26.1514 44.1497L12.6533 7.47204C12.397 6.95846 10.2185 2.6787 6.67311 4.09103C5.5625 4.519 4.83634 5.20376 4.40918 6.14532C3.59759 8.11401 4.06746 11.3238 5.90423 15.732C6.24596 16.5452 5.86152 17.4867 5.04992 17.8291C4.23832 18.1715 3.29857 17.7863 2.95684 16.9732C0.778344 11.6662 0.265757 7.72882 1.46179 4.90417C2.18796 3.14946 3.55487 1.86553 5.47708 1.09517C10.7311 -1.00192 14.3619 3.49184 15.558 6.1881C15.558 6.2309 15.6007 6.2737 15.6007 6.2737L29.0988 42.9942C29.3124 43.5506 29.5687 44.1069 29.825 44.6205C30.0386 44.1497 30.2521 43.6362 30.423 43.1226L43.3659 7.34365C43.5367 6.61609 44.5192 3.19227 47.3811 1.43756C49.1752 0.324815 51.311 0.110826 53.703 0.795591C56.1805 1.48036 57.8465 2.76429 58.6581 4.64739C59.9822 7.60044 58.5726 10.8959 58.3163 11.4522L36.7876 67.9025C36.7876 67.9453 36.7449 67.9881 36.7022 68.0737C36.6595 68.2021 33.9684 73.4662 29.227 73.4662Z" fill="#FF4FB9"/>
</svg>
