<svg width="110" height="124" viewBox="0 0 110 124" fill="none" xmlns="http://www.w3.org/2000/svg">
<g filter="url(#v_layer)">
<path d="M47.227 91.4662C42.4428 91.4662 39.7945 85.6457 39.709 85.4318C39.709 85.389 39.6663 85.389 39.6663 85.3462L25.3565 46.6142C25.0575 45.801 25.4847 44.8595 26.2963 44.5599C27.1079 44.2603 28.0476 44.6882 28.3466 45.5014L42.6137 84.1906C43.169 85.389 44.963 88.2992 47.1843 88.2992C49.7472 88.2992 51.584 85.0894 51.883 84.6186L73.4117 28.1683C73.4117 28.1255 73.4544 28.0827 73.4544 28.0399C73.7534 27.3979 74.4368 25.3436 73.7961 23.8457C73.3689 22.9042 72.3865 22.2194 70.9342 21.7914C69.3964 21.3635 68.1577 21.4491 67.1325 22.091C65.1676 23.2894 64.5268 26.0284 64.5268 26.0712C64.5268 26.1568 64.4841 26.1996 64.4841 26.2852L51.4985 62.1925C49.7472 66.7719 48.8929 67.1571 47.9104 67.1571C46.9707 67.1571 46.0737 66.7719 44.1942 62.1925C44.1942 62.1925 44.1941 62.1497 44.1514 62.1497L30.6533 25.472C30.397 24.9585 28.2185 20.6787 24.6731 22.091C23.5625 22.519 22.8363 23.2038 22.4092 24.1453C21.5976 26.114 22.0675 29.3238 23.9042 33.732C24.246 34.5452 23.8615 35.4867 23.0499 35.8291C22.2383 36.1715 21.2986 35.7863 20.9568 34.9732C18.7783 29.6662 18.2658 25.7288 19.4618 22.9042C20.188 21.1495 21.5549 19.8655 23.4771 19.0952C28.7311 16.9981 32.3619 21.4918 33.558 24.1881C33.558 24.2309 33.6007 24.2737 33.6007 24.2737L47.0988 60.9942C47.3124 61.5506 47.5687 62.1069 47.825 62.6205C48.0386 62.1497 48.2521 61.6362 48.423 61.1226L61.3659 25.3436C61.5367 24.6161 62.5192 21.1923 65.3811 19.4376C67.1752 18.3248 69.311 18.1108 71.703 18.7956C74.1805 19.4804 75.8465 20.7643 76.6581 22.6474C77.9822 25.6004 76.5726 28.8959 76.3163 29.4522L54.7876 85.9025C54.7876 85.9453 54.7449 85.9881 54.7022 86.0737C54.6595 86.2021 51.9684 91.4662 47.227 91.4662Z" fill="#FF4FB9"/>
</g>
<defs>
<filter id="v_layer" x="0.832031" y="0.404297" width="108.385" height="123.062" filterUnits="userSpaceOnUse" color-interpolation-filters="sRGB">
<feFlood flood-opacity="0" result="BackgroundImageFix"/>
<feColorMatrix in="SourceAlpha" type="matrix" values="0 0 0 0 0 0 0 0 0 0 0 0 0 0 0 0 0 0 127 0" result="hardAlpha"/>
<feOffset dx="7" dy="7"/>
<feGaussianBlur stdDeviation="12.5"/>
<feComposite in2="hardAlpha" operator="out"/>
<feColorMatrix type="matrix" values="0 0 0 0 1 0 0 0 0 0.360784 0 0 0 0 0.745098 0 0 0 1 0"/>
<feBlend mode="normal" in2="BackgroundImageFix" result="effect1_dropShadow_561:9101"/>
<feBlend mode="normal" in="SourceGraphic" in2="effect1_dropShadow_561:9101" result="shape"/>
</filter>
</defs>
</svg>
